<?xml version="1.0" encoding="utf-8"?>
<!-- Generator: Adobe Illustrator 16.0.0, SVG Export Plug-In . SVG Version: 6.00 Build 0)  -->
<!DOCTYPE svg PUBLIC "-//W3C//DTD SVG 1.1//EN" "http://www.w3.org/Graphics/SVG/1.1/DTD/svg11.dtd">
<svg version="1.1" id="Layer_1" xmlns="http://www.w3.org/2000/svg" xmlns:xlink="http://www.w3.org/1999/xlink" x="0px" y="0px"
	 width="557.179px" height="138.577px" viewBox="0 0 557.179 138.577" enable-background="new 0 0 557.179 138.577"
	 xml:space="preserve">
<g>
	<path fill="none" stroke="#F1001C" stroke-width="8" stroke-miterlimit="10" d="M74.067,104.001L74.067,104.001
		c27.615,0,50-22.387,50-50.001c0-27.615-22.385-50-50-50h-30"/>
	<polyline fill="none" stroke="#707171" stroke-width="8" stroke-miterlimit="10" points="24.067,0.611 24.067,84.001 52.45,84.001 
			"/>
	<path fill="none" stroke="#F1001C" stroke-width="8" stroke-miterlimit="10" d="M74.067,84.001c16.541,0,30-13.459,30-30.001
		c0-16.541-13.459-30-30-30H45.784"/>
	<polyline fill="none" stroke="#707171" stroke-width="8.1344" stroke-miterlimit="10" points="4.067,0.611 4.067,104.001 
		52.45,104.001 	"/>
</g>
<line fill="none" stroke="#707171" stroke-width="8" stroke-linecap="round" stroke-miterlimit="10" x1="124.067" y1="104.001" x2="124.067" y2="104.001"/>
<path fill="none" stroke="#E4E5E3" stroke-miterlimit="10" d="M125.327,102.673c-0.34-0.339-0.81-0.55-1.328-0.55
	c-1.037,0-1.878,0.841-1.878,1.878s0.841,1.878,1.878,1.878c0.519,0,0.988-0.211,1.328-0.55"/>
<g>
	<path fill="#707070" d="M163.103,107.774v-80.31h5.785v75.27h33.599v5.04H163.103z"/>
	<path fill="#707070" d="M240.761,109.175c-8.727,0-15.631-2.753-20.715-8.261c-5.084-5.507-7.626-12.666-7.626-21.478
		c0-9.521,2.659-16.97,7.977-22.346c5.317-5.376,12.319-8.065,21.007-8.065c8.531,0,15.271,2.67,20.218,8.008
		c4.947,5.34,7.421,12.732,7.421,22.178c0,8.924-2.522,16.148-7.566,21.674C256.43,106.412,249.525,109.175,240.761,109.175z
		 M241.17,53.73c-7.052,0-12.671,2.277-16.858,6.832c-4.188,4.556-6.281,10.885-6.281,18.985c0,7.505,2.045,13.535,6.135,18.09
		c4.091,4.556,9.681,6.832,16.771,6.832c7.207,0,12.758-2.239,16.654-6.72c3.895-4.48,5.843-10.697,5.843-18.649
		c0-8.177-1.938-14.449-5.814-18.817C253.742,55.914,248.259,53.73,241.17,53.73z"/>
	<path fill="#707070" d="M280.788,105.254v-6.216c2.025,1.68,4.479,3.006,7.362,3.976c2.883,0.972,5.376,1.456,7.479,1.456
		c9.388,0,14.083-3.677,14.083-11.032c0-2.539-1.033-4.704-3.098-6.497c-2.064-1.792-5.415-3.64-10.05-5.544
		c-5.727-2.389-9.75-4.863-12.067-7.421c-2.317-2.557-3.477-5.665-3.477-9.324c0-4.667,1.86-8.438,5.58-11.313
		c3.72-2.875,8.308-4.313,13.762-4.313c5.142,0,9.544,1.008,13.206,3.024v5.825c-4.441-2.763-9.038-4.145-13.79-4.145
		c-3.936,0-7.11,0.98-9.525,2.939c-2.416,1.961-3.623,4.509-3.623,7.646c0,2.726,0.76,4.938,2.279,6.636
		c1.52,1.7,4.869,3.65,10.051,5.853c6.232,2.688,10.518,5.181,12.855,7.477c2.337,2.297,3.506,5.349,3.506,9.157
		c0,4.556-1.782,8.316-5.347,11.285c-3.564,2.968-8.483,4.452-14.755,4.452C289.455,109.175,284.645,107.867,280.788,105.254z"/>
	<path fill="#707070" d="M354.006,106.99c-2.805,1.269-5.435,1.904-7.889,1.904c-8.844,0-13.265-5.077-13.265-15.233V55.13h-10.752
		v-4.704h10.752V35.529c0.856-0.298,1.753-0.597,2.688-0.896c0.935-0.261,1.83-0.541,2.688-0.84v16.633h15.777v4.704h-15.777v37.859
		c0,3.958,0.652,6.824,1.958,8.597c1.305,1.773,3.515,2.66,6.632,2.66c2.221,0,4.616-0.69,7.188-2.072V106.99z"/>
	<path fill="#707070" d="M367.036,107.774v-80.31h20.978c13.907,0,24.483,3.324,31.729,9.969
		c7.246,6.646,10.869,16.335,10.869,29.066c0,12.247-3.887,22.188-11.658,29.822c-7.771,7.636-18.494,11.453-32.168,11.453H367.036z
		 M372.821,32.561v70.174h13.147c12.426,0,21.971-3.089,28.632-9.269c6.662-6.18,9.992-15.094,9.992-26.742
		c0-22.775-12.485-34.163-37.456-34.163H372.821z"/>
	<path fill="#707070" d="M470.522,109.175c-8.727,0-15.631-2.753-20.715-8.261c-5.084-5.507-7.626-12.666-7.626-21.478
		c0-9.521,2.659-16.97,7.977-22.346c5.317-5.376,12.319-8.065,21.007-8.065c8.531,0,15.271,2.67,20.218,8.008
		c4.947,5.34,7.421,12.732,7.421,22.178c0,8.924-2.522,16.148-7.566,21.674C486.191,106.412,479.287,109.175,470.522,109.175z
		 M470.932,53.73c-7.052,0-12.671,2.277-16.858,6.832c-4.188,4.556-6.281,10.885-6.281,18.985c0,7.505,2.045,13.535,6.135,18.09
		c4.091,4.556,9.681,6.832,16.771,6.832c7.207,0,12.758-2.239,16.654-6.72c3.895-4.48,5.843-10.697,5.843-18.649
		c0-8.177-1.938-14.449-5.814-18.817C483.504,55.914,478.021,53.73,470.932,53.73z"/>
	<path fill="#707070" d="M552.387,105.254c-4.44,2.613-9.739,3.921-15.894,3.921c-8.143,0-14.706-2.679-19.692-8.037
		c-4.986-5.357-7.479-12.367-7.479-21.029c0-9.109,2.805-16.567,8.415-22.374c5.609-5.805,12.815-8.708,21.62-8.708
		c4.558,0,8.979,0.896,13.265,2.688v5.825c-4.286-2.539-8.979-3.809-14.083-3.809c-7.012,0-12.7,2.418-17.063,7.252
		c-4.363,4.836-6.544,11.099-6.544,18.79c0,7.43,1.995,13.404,5.989,17.921c3.992,4.519,9.262,6.776,15.806,6.776
		c5.999,0,11.22-1.53,15.66-4.592V105.254z"/>
</g>
</svg>
